<svg version="1.1" xmlns="http://www.w3.org/2000/svg" viewBox="0 0 32 32">
   <defs>
      <style>
         g {
         filter: saturate(0);
         transform-origin: center;
   
         transition: filter linear .5s,
                     transform linear .1s;
         }
         g:hover {
         filter: saturate(1);
         cursor: pointer;
         }
   
         g:active {
         transform: scale(.9);
         }
      </style>
   </defs>
   <g id="logo-twitter">
      <path d="
         M11.7887 28
         C8.55374 28 5.53817 27.0591 3 25.4356
         C5.15499 25.5751 8.95807 25.2411 11.3236 22.9848
         C7.76508 22.8215 6.16026 20.0923 5.95094 18.926
         C6.25329 19.0426 7.6953 19.1826 8.50934 18.856
         C4.4159 17.8296 3.78793 14.2373 3.92748 13.141
         C4.695 13.6775 5.99745 13.8641 6.50913 13.8174
         C2.69479 11.0882 4.06703 6.98276 4.74151 6.09635
         C7.47882 9.88867 11.5812 12.0186 16.6564 12.137
         C16.5607 11.7174 16.5102 11.2804 16.5102 10.8316
         C16.5102 7.61092 19.1134 5 22.3247 5
         C24.0025 5 25.5144 5.71275 26.5757 6.85284
         C27.6969 6.59011 29.3843 5.97507 30.2092 5.4432
         C29.7934 6.93611 28.4989 8.18149 27.7159 8.64308
         C27.7224 8.65878 27.7095 8.62731 27.7159 8.64308
         C28.4037 8.53904 30.2648 8.18137 31 7.68256
         C30.6364 8.52125 29.264 9.91573 28.1377 10.6964
         C28.3473 19.9381 21.2765 28 11.7887 28Z
      " fill="#47ACDF"/>
   </g>
</svg>